Coordinates
version=1
nRows=20
nColumns=23
inDegrees=yes

Units are S.I. units (second, meters, Newtons, ...)
If the header above contains a line with 'inDegrees', this indicates whether rotational values are in degrees (yes) or radians (no).

endheader
time	pelvis_tilt	pelvis_list	pelvis_rotation	pelvis_tx	pelvis_ty	pelvis_tz	hip_flexion_r	hip_adduction_r	hip_rotation_r	knee_angle_r	knee_angle_r_beta	ankle_angle_r	subtalar_angle_r	mtp_angle_r	hip_flexion_l	hip_adduction_l	hip_rotation_l	knee_angle_l	knee_angle_l_beta	ankle_angle_l	subtalar_angle_l	mtp_angle_l
      0.00000000	     -6.68807473	      0.43287289	      2.93809236	      2.33278167	      1.01959206	      0.97799112	     46.39948732	     -1.26757280	      1.29082854	    112.48657916	      1.96326117	      5.94868400	    -14.05048907	      0.00000000	      3.80678078	      3.40632387	     -1.89861756	     36.00005037	      0.62831941	     19.16901098	     -1.38428229	      0.00000000
      0.00666667	     -6.73510860	      0.28460530	      2.25446607	      2.33586747	      1.02527268	      0.97867969	     47.50296586	     -0.59230569	      1.15356680	    109.58603946	      1.91263720	      5.80146452	    -15.39461479	      0.00000000	      1.59513508	      2.92085137	     -3.16624729	     34.40058192	      0.60040342	     14.78121614	     -1.32415202	      0.00000000
      0.01333333	     -6.54393545	     -0.29601009	      1.77562286	      2.33919886	      1.03137923	      0.97901164	     48.01469065	      0.28598272	      0.54959226	    106.41012477	      1.85720703	      5.79387462	    -16.60604414	      0.00000000	     -0.88736069	      2.05730927	     -4.17141170	     32.68499100	      0.57046071	     10.20988370	     -1.56568427	      0.00000000
      0.02000000	     -6.18502054	     -1.06760438	      1.38696158	      2.34266978	      1.03768982	      0.97920606	     48.09732829	      1.25716706	     -0.22894767	    103.04071759	      1.79839979	      5.99278779	    -17.67477467	      0.00000000	     -3.53402645	      1.06542053	     -5.03991685	     30.90877693	      0.53945993	      5.60350740	     -1.78270715	      0.00000000
      0.02666667	     -6.71855984	     -1.23764922	      0.76532199	      2.34554016	      1.04209545	      0.97971817	     49.18717873	      1.89735474	     -0.34552970	     99.84718953	      1.74266221	      6.13449731	    -18.68210447	      0.00000000	     -5.03863863	      0.76442607	     -6.20609397	     29.42705488	      0.51359900	      1.13580985	     -1.79270156	      0.00000000
      0.03333333	     -6.93390293	     -1.59574388	      0.40940018	      2.34869678	      1.04695618	      0.97984857	     49.64961904	      2.44042260	     -0.81240293	     96.40499472	      1.68258457	      6.39390120	    -19.71695818	      0.00000000	     -6.78131893	      0.31201044	     -6.95886489	     28.01875701	      0.48901956	     -3.19446414	     -2.13563688	      0.00000000
      0.04000000	     -6.03685610	     -2.62882955	      0.50381831	      2.35243138	      1.05368974	      0.97917631	     48.49847129	      3.13361784	     -2.09890446	     92.44563458	      1.61348070	      6.61898965	    -20.88476842	      0.00000000	     -9.69253616	     -0.76448996	     -6.97227504	     26.49400547	      0.46240763	     -7.30248245	     -3.01628819	      0.00000000
      0.04666667	     -6.38721853	     -2.72416422	      0.13744297	      2.35519763	      1.05771337	      0.97928173	     48.87459676	      3.41312457	     -2.37881110	     88.79430910	      1.54975305	      6.94060533	    -21.74989175	      0.00000000	    -10.90591497	     -0.88651274	     -7.55632724	     25.68921224	      0.44836134	    -10.64654487	     -3.35824325	      0.00000000
      0.05333333	     -6.64540866	     -2.86179158	     -0.11708320	      2.35796654	      1.06161901	      0.97909579	     48.96928747	      3.57936900	     -2.81351479	     84.93820952	      1.48245142	      7.36284422	    -22.29551479	      0.00000000	    -12.04102728	     -1.02222777	     -7.85643178	     25.17711145	      0.43942349	    -13.45380937	     -3.89416105	      0.00000000
      0.06000000	     -7.23443539	     -2.63341520	     -0.53885492	      2.36020313	      1.06449200	      0.97915149	     49.39521377	      3.56315575	     -2.91394236	     81.05560541	      1.41468719	      7.75940083	    -22.59575471	      0.00000000	    -12.57880455	     -0.76517100	     -8.22188914	     25.13273570	      0.43864899	    -15.46420378	     -4.40886620	      0.00000000
      0.06666667	     -7.93516265	     -2.24344030	     -1.02383149	      2.36210879	      1.06672296	      0.97928841	     49.84636744	      3.46188403	     -2.89954184	     77.04485384	      1.34468637	      8.16087029	    -22.58044805	      0.00000000	    -12.79255200	     -0.31607259	     -8.47212579	     25.48317481	      0.44476530	    -16.71836970	     -4.96871394	      0.00000000
      0.07333333	     -8.79298818	     -1.66262514	     -1.59027810	      2.36359250	      1.06822958	      0.97948897	     50.38568431	      3.27143349	     -2.74914711	     72.90970661	      1.27251444	      8.60062466	    -22.03753248	      0.00000000	    -12.63123334	      0.34153892	     -8.70107489	     26.23674122	      0.45791752	    -17.15282871	     -5.33058939	      0.00000000
      0.08000000	     -9.55451789	     -1.11478074	     -2.17935350	      2.36473325	      1.06945275	      0.97972153	     50.68314540	      3.13463099	     -2.66919890	     68.55581157	      1.19652463	      8.95843160	    -21.16361440	      0.00000000	    -12.38684679	      0.98984285	     -8.79688043	     27.35244273	      0.47739018	    -17.08041453	     -5.98437804	      0.00000000
      0.08666667	     -9.94395859	     -0.87060372	     -2.52948893	      2.36583764	      1.07105408	      0.97955998	     50.32338847	      2.99025911	     -3.09498750	     63.87892511	      1.11489757	      9.44276551	    -19.53061555	      0.00000000	    -12.40050462	      1.32825002	     -8.56442772	     28.72305072	      0.50131181	    -16.67266308	     -6.68539394	      0.00000000
      0.09333333	    -10.22947439	     -0.69992470	     -2.97436998	      2.36676152	      1.07245964	      0.97959940	     49.68829896	      2.99812414	     -3.57615959	     58.99095008	      1.02958631	      9.88701769	    -17.36504149	      0.00000000	    -12.40202993	      1.57050292	     -8.55183312	     30.36230097	      0.52992212	    -15.96818613	     -7.07827539	      0.00000000
      0.10000000	    -10.55388022	     -0.51325000	     -3.30311078	      2.36745490	      1.07343426	      0.97954653	     48.95890759	      2.89942019	     -4.27355521	     53.99752132	      0.94243453	     10.42023210	    -14.43962641	      0.00000000	    -12.16348223	      1.78735838	     -8.42581086	     32.36963711	      0.56495675	    -15.09087833	     -7.39273906	      0.00000000
      0.10666667	    -10.04121158	     -1.05833639	     -3.47801077	      2.36858725	      1.07565488	      0.97936825	     46.92453318	      3.27580961	     -5.63665934	     48.53653451	      0.84712233	     10.94802942	    -11.02696413	      0.00000000	    -12.83457720	      1.22634733	     -8.40691192	     34.43805945	      0.60105753	    -14.33305771	     -7.52391714	      0.00000000
      0.11333333	     -9.75545771	     -1.29307460	     -3.52342145	      2.36943590	      1.07685837	      0.97913549	     45.15918450	      3.34406552	     -7.06853256	     43.31479304	      0.75598575	     11.67918089	     -6.69038996	      0.00000000	    -13.03563037	      0.88777937	     -8.32443444	     36.89230361	      0.64389217	    -13.65258515	     -7.51411776	      0.00000000
      0.12000000	     -8.28811280	     -2.55987138	     -3.30573870	      2.37099800	      1.07988078	      0.97884218	     41.62099157	      4.29481384	     -9.12446250	     37.49299028	      0.65437613	     12.21087769	     -2.38933754	      0.00000000	    -14.58904580	     -0.57204293	     -8.38660287	     39.29362851	      0.68580319	    -13.23427598	     -7.43786868	      0.00000000
      0.12666667	     -7.04260276	     -3.45188031	     -3.04286085	      2.37225443	      1.08166268	      0.97872024	     38.45431472	      5.09188837	    -10.87979285	     32.11035548	      0.56043143	     12.90007463	      2.24955996	      0.00000000	    -15.69665607	     -1.74906695	     -8.46284165	     42.03702474	      0.73368449	    -12.89255930	     -7.26939988	      0.00000000
